# AST/ASF file generated using VICON BodyLanguage
# -----------------------------------------------
:version 1.10
:name VICON
:units
  mass 1.0
  length 0.45
  angle deg
:documentation
   .ast/.asf automatically generated from VICON data using
   VICON BodyBuilder and BodyLanguage model FoxedUp or BRILLIANT.MOD
:root
   order TX TY TZ RX RY RZ
   axis XYZ
   position 0 0 0  
   orientation 0 0 0 
:bonedata
  begin
     id 1 
     name lhipjoint
     direction 0.646821 -0.743844 0.168282 
     length 2.62284 
     axis 0 0 0  XYZ
  end
  begin
     id 2 
     name lfemur
     direction 0.34202 -0.939693 0  
     length 7.79098  
     axis 0 0 20  XYZ
    dof rx ry rz
    limits (-160.0 20.0)
           (-70.0 70.0)
           (-60.0 70.0)
  end
  begin
     id 3 
     name ltibia
     direction 0.34202 -0.939693 0   
     length 8.1986   
     axis 0 0 20   XYZ
    dof rx
    limits (-10.0 170.0)
  end
  begin
     id 4 
     name lfoot
     direction 0.0766762 -0.210666 0.974546   
     length 1.95107   
     axis -90 7.62852e-016 20   XYZ
    dof rx rz
    limits (-45.0 90.0)
           (-70.0 20.0)
  end
  begin
     id 5 
     name ltoes
     direction 1.53582e-011 -4.21539e-011 1   
     length 0.983514   
     axis -90 7.62852e-016 20   XYZ
    dof rx
    limits (-90.0 20.0)
  end
  begin
     id 6 
     name rhipjoint
     direction -0.658967 -0.733632 0.165972   
     length 2.65935  
     axis 0 0 0  XYZ 
  end
  begin
     id 7 
     name rfemur
     direction -0.34202 -0.939693 0   
     length 7.69405   
     axis 0 0 -20   XYZ
    dof rx ry rz
    limits (-160.0 20.0)
           (-70.0 70.0)
           (-70.0 60.0)
  end
  begin
     id 8 
     name rtibia
     direction -0.34202 -0.939693 0   
     length 8.15138   
     axis 0 0 -20   XYZ
    dof rx
    limits (-10.0 170.0)
 end
 begin
     id 9 
     name rfoot
     direction -0.0806473 -0.221577 0.971802   
     length 2.09362  
     axis -90 -7.62852e-016 -20   XYZ
    dof rx rz
    limits (-45.0 90.0)
           (-20.0 70.0)
  end
  begin
     id 10 
     name rtoes
     direction -1.53524e-011 -4.2203e-011 1   
     length 1.05224   
     axis -90 -7.62852e-016 -20   XYZ
    dof rx
    limits (-90.0 20.0)
  end
  begin
     id 11 
     name lowerback
     direction -0.0484271 0.997202 0.0569433   
     length 1.86801   
     axis 0 0 0   XYZ
    dof rx ry rz
    limits (-20.0 45.0)
           (-30.0 30.0)
           (-30.0 30.0)
  end
  begin
     id 12 
     name upperback
     direction 0.0148864 0.998882 0.0448682   
     length 1.86634   
     axis 0 0 0   XYZ
    dof rx ry rz
    limits (-20.0 45.0)
           (-30.0 30.0)
           (-30.0 30.0)
  end
  begin
     id 13 
     name thorax
     direction 0.0368776 0.99918 0.0167067   
     length 1.87554   
     axis 0 0 0   XYZ
    dof rx ry rz
    limits (-20.0 45.0)
           (-30.0 30.0)
           (-30.0 30.0)
  end
  begin
     id 14 
     name lowerneck
     direction -0.0200531 0.999751 0.00976032   
     length 1.82429   
     axis 0 0 0   XYZ
    dof rx ry rz
    limits (-20.0 45.0)
           (-30.0 30.0)
           (-30.0 30.0)
  end
  begin
     id 15 
     name upperneck
     direction 0.0113135 0.99728 -0.0728357   
     length 1.79098   
     axis 0 0 0   XYZ
    dof rx ry rz
    limits (-20.0 45.0)
           (-30.0 30.0)
           (-30.0 30.0)
  end
  begin
     id 16
     name head
     direction 0.00559662 0.999607 -0.0274604  
     length 1.88003  
     axis 0 0 0   XYZ
    dof rx ry rz
    limits (-20.0 45.0)
           (-30.0 30.0)
           (-30.0 30.0)
  end
  begin
     id 17 
     name lclavicle
     direction 0.931914 0.362632 -0.00585704  
     length 3.94155  
     axis 0 0 0   XYZ
    dof ry rz
    limits (-20.0 10.0)
           (0.0 20.0)
  end
  begin
     id 18 
     name lhumerus
     direction 1 -4.48969e-011 2.13403e-027   
     length 5.77473   
     axis 180 -30 -90   XYZ
    dof rx ry rz
    limits (-60.0 90.0)
           (-90.0 90.0)
           (-90.0 90.0)
  end
  begin
     id 19
     name lradius
     direction 1 -4.48969e-011 5.41017e-027   
     length 3.53732   
     axis 180 -30 -90   XYZ
    dof rx
    limits (-10.0 170.0)
  end
  begin
     id 20
     name lwrist
     direction 1 -4.48986e-011 1.36145e-026   
     length 1.76866   
     axis -8.75986e-015 90 90   XYZ
    dof ry
    limits (-180.0 0.0)
 end
  begin
     id 21 
     name lhand
     direction 1 -4.48703e-011 2.72291e-026   
     length 0.556229   
     axis -1.73745e-014 90 90   XYZ
    dof rx rz
    limits (-90.0 90.0)
           (-45.0 45.0)
  end
  begin
     id 22 
     name lfingers
     direction 1 -4.49204e-011 5.44582e-026   
     length 0.448446   
     axis -3.4749e-014 90 90   XYZ
    dof rx
    limits (0.0 90.0)
  end
  begin
     id 23
     name lthumb
     direction 0.707107 -6.34773e-011 0.707107   
     length 0.643881   
     axis -90 45 2.85299e-015   XYZ
    dof rx rz
    limits (-45.0 45.0)
           (-45.0 45.0)
  end
  begin
     id 24 
     name rclavicle
     direction -0.951782 0.300043 0.0639076   
     length 3.96398  
     axis 0 0 0   XYZ 
    dof ry rz
    limits (-10.0 20.0)
           (-20.0 0.0)
  end
  begin
     id 25 
     name rhumerus
     direction -1 -4.48967e-011 6.14867e-028  
     length 5.79581   
     axis 180 30 90   XYZ
    dof rx ry rz
    limits (-90.0 60.0)
           (-90.0 90.0)
           (-90.0 90.0)
  end
  begin
     id 26 
     name rradius
     direction -1 -4.48966e-011 9.26908e-027   
     length 3.37412   
     axis 180 30 90   XYZ
    dof rx
    limits (-10.0 170.0)
  end
  begin
     id 27 
     name rwrist
     direction -1 -4.48999e-011 1.36145e-026   
     length 1.68706   
     axis -8.75986e-015 -90 -90   XYZ
    dof ry
    limits (-180.0 0.0)
  end
  begin
     id 28
     name rhand
     direction -1 -4.49032e-011 2.72291e-026   
     length 0.680496   
     axis -1.73745e-014 -90 -90   XYZ
    dof rx rz
    limits (-90.0 90.0)
           (-45.0 45.0)
  end
  begin
     id 29
     name rfingers
     direction -1 -4.48876e-011 5.44582e-026   
     length 0.548633   
     axis -3.4749e-014 -90 -90   XYZ
    dof rx
    limits (0.0 90.0)
  end
  begin
     id 30
     name rthumb
     direction -0.707107 -6.34964e-011 0.707107   
     length 0.787731   
     axis -90 -45 -2.85299e-015   XYZ
    dof rx rz
    limits (-45.0 45.0)
           (-45.0 45.0)
  end
:hierarchy
  begin
    root lhipjoint rhipjoint lowerback
    lhipjoint lfemur
    lfemur ltibia
    ltibia lfoot
    lfoot ltoes
    rhipjoint rfemur
    rfemur rtibia
    rtibia rfoot
    rfoot rtoes
    lowerback upperback
    upperback thorax
    thorax lowerneck lclavicle rclavicle
    lowerneck upperneck
    upperneck head
    lclavicle lhumerus
    lhumerus lradius
    lradius lwrist
    lwrist lhand lthumb
    lhand lfingers
    rclavicle rhumerus
    rhumerus rradius
    rradius rwrist
    rwrist rhand rthumb
    rhand rfingers
  end

#!OML:ASF H:\Terrain\Patient Classification 1\PaulMetrics\March1\PaulMetrics.ASF
:FULLY-SPECIFIED
:DEGREES
205
root 16.1174 18.2386 8.27649 6.61541 -30.5849 6.89125
lowerback -6.39011 -0.794959 -5.43047
upperback -5.89554 -0.886782 0.802349
thorax -2.44338 -0.269755 3.84167
lowerneck -1.00091 -1.99587 -2.39866
upperneck 5.05316 -2.59853 -0.336454
head 1.76503 -1.3529 0.249594
rclavicle 1.67476e-014 -5.56597e-015
rhumerus -54.2868 21.2552 -96.4329
rradius 48.0632
rwrist -11.5686
rhand -11.9597 -33.4747
rfingers 7.12502
rthumb 14.0959 -62.9767
lclavicle 1.67476e-014 -5.56597e-015
lhumerus -52.4824 -15.7267 91.9796
lradius 53.8302
lwrist 3.74068
lhand -18.1074 -10.8667
lfingers 7.12502
lthumb 8.16664 18.9555
rfemur -27.5207 6.71597 27.1345
rtibia 32.6606
rfoot -14.8606 -13.3297
rtoes -1.72577
lfemur -32.0443 3.87043 -19.3001
ltibia 70.4838
lfoot -2.8797 2.05531
ltoes -22.7497
206
root 16.0341 18.2538 8.40074 6.64089 -31.5265 6.90292
lowerback -6.5211 -0.736189 -5.32895
upperback -5.95465 -0.809982 0.778991
thorax -2.4413 -0.235344 3.76272
lowerneck -0.99763 -2.00997 -2.3819
upperneck 4.96259 -2.61924 -0.320276
head 1.73547 -1.36173 0.251944
rclavicle -6.80837e-014 -1.59028e-014
rhumerus -54.2689 21.5375 -96.3292
rradius 49.0307
rwrist -11.7004
rhand -11.612 -33.3443
rfingers 7.12502
rthumb 14.4309 -62.8226
lclavicle -6.80837e-014 -1.59028e-014
lhumerus -53.0266 -15.5969 92.1716
lradius 52.571
lwrist 4.44076
lhand -17.9283 -10.3813
lfingers 7.12502
lthumb 8.33952 19.4341
rfemur -26.961 7.24159 27.1728
rtibia 32.5277
rfoot -14.7801 -13.1442
rtoes -4.31225
lfemur -32.9306 3.27873 -19.1982
ltibia 69.869
lfoot -3.77064 3.03112
ltoes -21.5897
207
root 15.9529 18.2691 8.51609 6.36933 -32.4582 7.26814
lowerback -6.38662 -0.78027 -5.65501
upperback -5.97487 -0.86686 0.717422
thorax -2.53156 -0.251683 3.88141
lowerneck -1.03274 -1.94733 -2.21309
upperneck 4.73577 -2.53335 -0.472681
head 1.66262 -1.31662 0.178798
rclavicle 3.55328e-014 -1.11319e-014
rhumerus -54.163 21.8089 -96.2496
rradius 50.0757
rwrist -11.7383
rhand -11.6145 -32.7484
rfingers 7.12502
rthumb 14.4284 -62.2269
lclavicle 3.55328e-014 -1.11319e-014
lhumerus -53.5307 -15.242 92.1794
lradius 51.3397
lwrist 4.73629
lhand -17.8334 -9.95943
lfingers 7.12502
lthumb 8.43113 19.8523
rfemur -26.2977 7.78975 26.8841
rtibia 32.4042
rfoot -15.3218 -12.9747
rtoes -4.91618
lfemur -33.6952 2.53465 -19.3798
ltibia 69.0674
lfoot -4.56276 3.93799
ltoes -19.2223
208
root 15.8737 18.2754 8.62879 6.18879 -33.312 7.61266
lowerback -6.41638 -0.820927 -5.888
upperback -5.94363 -0.912444 0.581471
thorax -2.47848 -0.272333 3.86836
lowerneck -0.910207 -1.80509 -2.21192
upperneck 4.20719 -2.35875 -0.231409
head 1.47414 -1.21951 0.260282
rclavicle -7.81721e-014 -6.36111e-015
rhumerus -53.9614 21.9649 -96.2346
rradius 51.1972
rwrist -11.9963
rhand -11.8108 -32.8892
rfingers 7.12502
rthumb 14.2393 -62.381
lclavicle -7.81721e-014 -6.36111e-015
lhumerus -53.9368 -14.8347 92.0365
lradius 50.1574
lwrist 4.74064
lhand -17.3827 -9.82402
lfingers 7.12502
lthumb 8.86602 19.9697
rfemur -25.7201 8.18721 26.6358
rtibia 32.2425
rfoot -16.0108 -12.712
rtoes -5.1366
lfemur -34.5152 1.79896 -19.5096
ltibia 68.114
lfoot -5.27778 4.61191
ltoes -17.8845
209
root 15.7943 18.2789 8.74535 6.37401 -34.1876 7.36472
lowerback -6.55411 -0.690164 -5.40315
upperback -5.94917 -0.753593 0.470803
thorax -2.4261 -0.213922 3.48612
lowerneck -0.817965 -1.75724 -2.3257
upperneck 3.86171 -2.31149 0.20325
head 1.35621 -1.18709 0.416708
rclavicle 4.81059e-014 7.95139e-015
rhumerus -53.8956 21.9895 -96.1978
rradius 52.4242
rwrist -12.4377
rhand -11.8121 -33.7711
rfingers 7.12502
rthumb 14.2381 -63.263
lclavicle 4.81059e-014 7.95139e-015
lhumerus -54.4732 -14.7273 92.0285
lradius 49.0641
lwrist 4.83021
lhand -16.8592 -9.74743
lfingers 7.12502
lthumb 9.37124 20.0243
rfemur -25.1645 8.60595 26.9268
rtibia 32.0555
rfoot -16.2455 -12.3345
rtoes -5.3997
lfemur -35.3285 1.12029 -19.035
ltibia 67.0384
lfoot -6.2223 5.03986
ltoes -16.4753
210
root 15.7146 18.2865 8.85888 6.39313 -35.2147 7.05225
lowerback -6.41111 -0.583517 -4.9847
upperback -5.92874 -0.63764 0.466205
thorax -2.49509 -0.169122 3.25235
lowerneck -0.940355 -1.72757 -2.17468
upperneck 3.80276 -2.27237 0.218666
head 1.35618 -1.16452 0.396083
rclavicle 1.09332e-015 6.36111e-015
rhumerus -53.8828 22.2781 -96.1914
rradius 53.5058
rwrist -12.6397
rhand -11.7436 -33.6827
rfingers 7.12502
rthumb 14.3041 -63.17
lclavicle 1.09332e-015 6.36111e-015
lhumerus -55.0019 -14.3787 91.9695
lradius 47.946
lwrist 4.88386
lhand -16.6572 -9.58314
lfingers 7.12502
lthumb 9.56609 20.1797
rfemur -24.3848 9.23869 27.2767
rtibia 31.8703
rfoot -16.7351 -11.9278
rtoes -2.27272
lfemur -35.8401 0.510958 -18.4818
ltibia 65.8203
lfoot -7.25106 5.48224
ltoes -13.9324
211
root 15.6326 18.2998 8.97301 6.37367 -36.2665 7.03179
lowerback -6.3837 -0.58534 -4.93541
upperback -5.93504 -0.645664 0.480491
thorax -2.51607 -0.1748 3.23943
lowerneck -0.995673 -1.64928 -2.0204
upperneck 3.57886 -2.16948 0.208461
head 1.29128 -1.10941 0.369038
rclavicle -6.3959e-014 -1.82882e-014
rhumerus -53.7906 22.7632 -96.2266
rradius 54.4821
rwrist -12.8607
rhand -11.3895 -32.7899
rfingers 7.12502
rthumb 14.6453 -62.2527
lclavicle -6.3959e-014 -1.82882e-014
lhumerus -55.4629 -13.9495 91.8962
lradius 46.779
lwrist 4.94304
lhand -16.2722 -9.19413
lfingers 7.12502
lthumb 9.93758 20.5513
rfemur -23.7847 9.74662 27.3585
rtibia 31.7389
rfoot -17.2824 -11.5555
rtoes 0.156648
lfemur -36.4289 -0.0774431 -18.222
ltibia 64.4457
lfoot -8.07535 6.27997
ltoes -14.6561
212
root 15.5528 18.3056 9.08499 6.47303 -37.2051 7.12275
lowerback -6.45778 -0.545006 -4.90003
upperback -6.02569 -0.596342 0.428761
thorax -2.57497 -0.150896 3.16792
lowerneck -0.972683 -1.62047 -2.14609
upperneck 3.29666 -2.1373 0.478518
head 1.20363 -1.08888 0.4749
rclavicle 6.4605e-015 -3.18055e-015
rhumerus -53.6868 22.9237 -96.114
rradius 55.5648
rwrist -13.0174
rhand -10.8958 -32.5703
rfingers 7.12502
rthumb 15.1209 -61.9979
lclavicle 6.4605e-015 -3.18055e-015
lhumerus -55.9529 -13.6954 91.9141
lradius 45.6101
lwrist 4.75359
lhand -15.7167 -9.04966
lfingers 7.12502
lthumb 10.4734 20.6694
rfemur -23.4611 10.0919 27.3332
rtibia 31.6646
rfoot -17.7315 -11.2177
rtoes 0.753447
lfemur -37.234 -0.562071 -18.0791
ltibia 62.9126
lfoot -8.4972 7.19114
ltoes -19.1695
213
root 15.4725 18.3009 9.19828 6.18808 -38.2709 7.56789
lowerback -6.3954 -0.465167 -5.1679
upperback -6.06415 -0.488527 0.312586
thorax -2.66162 -0.0880848 3.20302
lowerneck -1.19284 -1.5776 -2.21914
upperneck 3.31472 -2.07914 0.675228
head 1.25023 -1.05746 0.547431
rclavicle 6.97237e-014 4.77083e-014
rhumerus -53.6672 23.0432 -95.9917
rradius 56.6695
rwrist -13.0597
rhand -11.0583 -32.314
rfingers 7.12502
rthumb 14.9643 -61.7534
lclavicle 6.97237e-014 4.77083e-014
lhumerus -56.442 -13.4175 91.9552
lradius 44.4534
lwrist 4.46478
lhand -15.4831 -9.0694
lfingers 7.12502
lthumb 10.6988 20.6382
rfemur -22.9476 10.4672 27.0528
rtibia 31.5857
rfoot -17.6575 -11.0333
rtoes -0.109124
lfemur -37.6753 -0.822016 -18.2973
ltibia 61.2133
lfoot -9.05978 7.98764
ltoes -22.5214
214
root 15.3865 18.3013 9.31687 5.71277 -39.4385 8.0598
lowerback -6.28925 -0.416732 -5.49231
upperback -6.00412 -0.419136 0.188152
thorax -2.66655 -0.0459544 3.25921
lowerneck -1.63644 -1.48582 -1.86532
upperneck 3.42815 -1.94907 0.472726
head 1.3533 -0.990995 0.42449
rclavicle 4.12478e-014 -5.56597e-015
rhumerus -53.6739 23.4297 -96.0151
rradius 57.8478
rwrist -13.0532
rhand -11.1788 -32.0491
rfingers 7.12502
rthumb 14.8483 -61.497
lclavicle 4.12478e-014 -5.56597e-015
lhumerus -56.9074 -12.983 91.8278
lradius 43.4849
lwrist 4.19602
lhand -15.4107 -8.84459
lfingers 7.12502
lthumb 10.7686 20.8594
rfemur -22.1484 10.8949 26.7812
rtibia 31.4211
rfoot -16.925 -11.1409
rtoes -4.98192
lfemur -37.8113 -1.10169 -18.4703
ltibia 59.4043
lfoot -10.2147 8.59721
ltoes -20.2679
215
root 15.3018 18.2957 9.42978 5.61453 -40.5626 8.20833
lowerback -6.29537 -0.405721 -5.52411
upperback -6.01918 -0.407019 0.13683
thorax -2.68064 -0.0403889 3.2243
lowerneck -2.06003 -1.37691 -1.55045
upperneck 3.53512 -1.79872 0.288053
head 1.45304 -0.914907 0.314449
rclavicle -2.65874e-014 -1.51076e-014
rhumerus -53.6586 23.8877 -96.0483
rradius 59.0128
rwrist -12.8031
rhand -10.6939 -32.5774
rfingers 7.12502
rthumb 15.3154 -61.9903
lclavicle -2.65874e-014 -1.51076e-014
lhumerus -57.4659 -12.3625 91.5185
lradius 42.6824
lwrist 3.67476
lhand -14.7964 -8.59676
lfingers 7.12502
lthumb 11.3611 21.0755
rfemur -21.3994 11.3305 26.7921
rtibia 31.1286
rfoot -16.6286 -11.3525
rtoes -11.464
lfemur -38.1985 -1.39973 -18.244
ltibia 57.5093
lfoot -11.1246 9.16263
ltoes -17.4656
216
root 15.215 18.2947 9.53845 5.55534 -41.8109 8.43152
lowerback -6.35813 -0.391782 -5.64311
upperback -6.10641 -0.387356 0.142765
thorax -2.74036 -0.0247746 3.29812
lowerneck -2.39678 -1.23379 -1.6589
upperneck 3.65047 -1.60483 0.483119
head 1.5503 -0.815944 0.395085
rclavicle -7.24073e-014 7.95139e-015
rhumerus -53.577 24.3293 -96.0358
rradius 59.9018
rwrist -12.6021
rhand -10.7802 -32.9372
rfingers 7.12502
rthumb 15.2322 -62.3564
lclavicle -7.24073e-014 7.95139e-015
lhumerus -58.0092 -11.6647 91.2707
lradius 41.7372
lwrist 3.1634
lhand -13.9405 -8.62417
lfingers 7.12502
lthumb 12.1865 21.0008
rfemur -20.6785 11.8596 26.6863
rtibia 30.7112
rfoot -17.0749 -11.1559
rtoes -13.1561
lfemur -38.56 -1.45215 -18.1715
ltibia 55.4198
lfoot -11.6515 10.0913
ltoes -18.093
217
root 15.1201 18.3274 9.65146 5.29619 -43.1619 8.81846
lowerback -6.4317 -0.353164 -5.8512
upperback -6.11603 -0.32732 0.1141
thorax -2.71756 0.0102002 3.3874
lowerneck -2.64886 -1.04059 -1.74203
upperneck 3.64668 -1.34672 0.692033
head 1.59344 -0.683579 0.478772
rclavicle -2.34566e-014 -7.95139e-015
rhumerus -53.5142 24.7969 -96.061
rradius 60.8393
rwrist -12.5704
rhand -11.6522 -33.0089
rfingers 7.12502
rthumb 14.3921 -62.4899
lclavicle -2.34566e-014 -7.95139e-015
lhumerus -58.4432 -10.994 91.0274
lradius 40.7825
lwrist 2.86854
lhand -13.4359 -8.87887
lfingers 7.12502
lthumb 12.673 20.7166
rfemur -19.9153 12.5333 26.3637
rtibia 30.2344
rfoot -17.7052 -10.2497
rtoes -7.26179
lfemur -38.6044 -1.42657 -18.2544
ltibia 53.0991
lfoot -12.1765 10.9279
ltoes -18.625
218
root 15.0273 18.3673 9.77196 4.83082 -44.329 9.52577
lowerback -6.55494 -0.287306 -6.12745
upperback -6.13105 -0.227395 -0.0533349
thorax -2.67829 0.0638887 3.37217
lowerneck -2.73854 -0.863145 -1.83618
upperneck 3.58975 -1.11631 1.00949
head 1.59186 -0.563027 0.598789
rclavicle 7.62339e-014 4.29375e-014
rhumerus -53.5832 25.098 -96.0218
rradius 62.0753
rwrist -12.79
rhand -12.0593 -33.1827
rfingers 7.12502
rthumb 13.9998 -62.6913
lclavicle 7.62339e-014 4.29375e-014
lhumerus -58.9668 -10.5712 90.8444
lradius 40.0079
lwrist 2.62035
lhand -12.7685 -8.94395
lfingers 7.12502
lthumb 13.3163 20.6106
rfemur -19.2212 12.9321 25.7793
rtibia 29.7972
rfoot -18.0817 -9.44827
rtoes -2.04372
lfemur -38.5757 -1.70036 -18.5064
ltibia 50.607
lfoot -12.4734 11.3238
ltoes -19.2443
219
root 14.947 18.3815 9.88888 4.52815 -45.4074 9.89215
lowerback -6.43904 -0.15129 -6.04864
upperback -6.1838 -0.0657567 -0.212817
thorax -2.81368 0.142162 3.16874
lowerneck -2.55563 -0.713871 -1.99587
upperneck 3.25374 -0.93035 1.50721
head 1.45541 -0.462345 0.785292
rclavicle 1.28713e-014 2.38542e-014
rhumerus -53.5876 25.125 -95.9115
rradius 63.2061
rwrist -12.9351
rhand -11.7199 -33.0484
rfingers 7.12502
rthumb 14.3269 -62.534
lclavicle 1.28713e-014 2.38542e-014
lhumerus -59.4511 -10.2176 90.5257
lradius 39.2723
lwrist 2.0115
lhand -11.8448 -8.8829
lfingers 7.12502
lthumb 14.2066 20.6113
rfemur -18.4954 13.158 25.5299
rtibia 29.3829
rfoot -18.0707 -8.79224
rtoes 0.688284
lfemur -38.509 -2.02067 -18.4461
ltibia 48.075
lfoot -12.8125 11.3432
ltoes -19.3288
